<svg width="32" height="32" viewBox="0 0 32 32" fill="none" xmlns="http://www.w3.org/2000/svg">
  <path
    d="M11.8 3.75h8.4c1.37 0 2.63.73 3.32 1.92l6.65 11.48c.68 1.18.68 2.64 0 3.82l-6.65 11.48a3.76 3.76 0 0 1-3.32 1.92h-8.4a3.76 3.76 0 0 1-3.32-1.92L1.83 20.97a3.76 3.76 0 0 1 0-3.82l6.65-11.48A3.76 3.76 0 0 1 11.8 3.75Z"
    stroke="white"
    stroke-width="1.5"
    stroke-linejoin="round"
  />
  <path
    d="M9.5 10.8c0-.88.72-1.6 1.6-1.6h11.3c.88 0 1.6.72 1.6 1.6v1.45c0 .88-.72 1.6-1.6 1.6h-6.33l6.71 7.75c.62.71.55 1.78-.16 2.4a1.69 1.69 0 0 1-1.11.41H9.88c-.88 0-1.6-.72-1.6-1.6v-1.45c0-.88.72-1.6 1.6-1.6h6.5L9.66 12.2a1.6 1.6 0 0 1-.16-.74V10.8Z"
    fill="white"
  />
</svg>
