<svg width="32" height="32" viewBox="0 0 32 32" fill="none" xmlns="http://www.w3.org/2000/svg">
  <rect width="32" height="32" rx="10" fill="#050C1A" />
  <path
    d="M11.8 5.25h8.4c1.26 0 2.41.67 3.03 1.76l5.9 10.17c.62 1.08.62 2.41 0 3.49l-5.9 10.17c-.62 1.09-1.77 1.76-3.03 1.76h-8.4c-1.26 0-2.41-.67-3.03-1.76L2.87 20.67c-.62-1.08-.62-2.41 0-3.49l5.9-10.17c.62-1.09 1.77-1.76 3.03-1.76Z"
    stroke="white"
    stroke-width="1.5"
    stroke-linejoin="round"
  />
  <path
    d="M9.5 11.8c0-.88.72-1.6 1.6-1.6h11.3c.88 0 1.6.72 1.6 1.6v1.45c0 .88-.72 1.6-1.6 1.6h-6.33l6.71 7.75c.62.71.55 1.78-.16 2.4a1.69 1.69 0 0 1-1.11.41H9.88c-.88 0-1.6-.72-1.6-1.6v-1.45c0-.88.72-1.6 1.6-1.6h6.5l-6.82-7.31a1.6 1.6 0 0 1-.16-.74V11.8Z"
    fill="white"
  />
</svg>
